<svg viewBox="0 0 12 17" fill="none" xmlns="http://www.w3.org/2000/svg">
    <path d="M6 12.8999C4.80653 12.8999 3.66193 12.4258 2.81802 11.5819C1.97411 10.738 1.5 9.59338 1.5 8.3999C1.5 7.6499 1.6875 6.9224 2.025 6.2999L0.93 5.2049C0.322315 6.15972 -0.000314711 7.26811 2.30358e-07 8.3999C2.30358e-07 9.9912 0.632141 11.5173 1.75736 12.6425C2.88258 13.7678 4.4087 14.3999 6 14.3999V16.6499L9 13.6499L6 10.6499V12.8999ZM6 2.3999V0.149902L3 3.1499L6 6.1499V3.8999C7.19347 3.8999 8.33807 4.37401 9.18198 5.21792C10.0259 6.06184 10.5 7.20643 10.5 8.3999C10.5 9.1499 10.3125 9.8774 9.975 10.4999L11.07 11.5949C11.6777 10.6401 12.0003 9.5317 12 8.3999C12 6.8086 11.3679 5.28248 10.2426 4.15726C9.11742 3.03204 7.5913 2.3999 6 2.3999Z" fill="currentColor"/>
</svg>
