<svg viewBox="0 0 24 28" fill="none" xmlns="http://www.w3.org/2000/svg">
    <path d="M9.5125 25.2625C9.5125 26.6375 10.625 27.75 12 27.75C13.375 27.75 14.4875 26.6375 14.4875 25.2625H9.5125ZM12 6.5C15.45 6.5 18.25 9.3 18.25 12.75V21.5H5.75V12.75C5.75 9.3 8.55 6.5 12 6.5ZM12 0.875C10.9625 0.875 10.125 1.7125 10.125 2.75V4.2125C6.2 5.0625 3.25 8.5625 3.25 12.75V20.25L0.75 22.75V24H23.25V22.75L20.75 20.25V12.75C20.75 8.5625 17.8 5.0625 13.875 4.2125V2.75C13.875 1.7125 13.0375 0.875 12 0.875ZM10.75 9H13.25V14H10.75V9ZM10.75 16.5H13.25V19H10.75V16.5Z" fill="currentColor"/>
    <path d="M9.5125 25.2625C9.5125 26.6375 10.625 27.75 12 27.75C13.375 27.75 14.4875 26.6375 14.4875 25.2625H9.5125ZM12 6.5C15.45 6.5 18.25 9.3 18.25 12.75V21.5H5.75V12.75C5.75 9.3 8.55 6.5 12 6.5ZM12 0.875C10.9625 0.875 10.125 1.7125 10.125 2.75V4.2125C6.2 5.0625 3.25 8.5625 3.25 12.75V20.25L0.75 22.75V24H23.25V22.75L20.75 20.25V12.75C20.75 8.5625 17.8 5.0625 13.875 4.2125V2.75C13.875 1.7125 13.0375 0.875 12 0.875ZM10.75 9H13.25V14H10.75V9ZM10.75 16.5H13.25V19H10.75V16.5Z" fill="currentColor"/>
</svg>
