<svg width="140" height="140" viewBox="0 0 140 140" fill="none" xmlns="http://www.w3.org/2000/svg">
<path d="M26.3315 63.5146C26.3315 63.5146 45.717 62.7383 49.9062 30.8728C53.6264 2.57312 86.3153 15.4541 95.7645 26.735C108.005 41.3485 101.48 66.4868 117.315 69.6624C133.149 72.8381 122.809 108.146 98.7729 104.767C68.8728 100.563 76.1069 118.035 67.131 125.43C60.6893 130.737 34.2757 125.628 33.3954 106.361C32.6546 90.1486 25.8157 90.1999 20.9683 88.3616C13.9772 85.7102 9.572 66.5085 26.3315 63.5146Z" fill="#EDF8FD"/>
<path d="M92.2311 98.9033L73.1855 80.0836L69.4142 83.9002L88.4598 102.72L92.2311 98.9033Z" fill="#0C395D"/>
<path d="M99.5066 103.96L84.689 89.3184C84.6065 89.2369 84.4735 89.2377 84.392 89.3202L78.7837 94.9958C78.7022 95.0783 78.703 95.2113 78.7855 95.2928L93.603 109.935C93.6855 110.016 93.8185 110.015 93.9 109.933L99.5083 104.257C99.5899 104.175 99.5891 104.042 99.5066 103.96Z" fill="#0077B3"/>
<path d="M56.3053 89.5485C69.4081 89.5485 80.0301 78.9266 80.0301 65.8238C80.0301 52.7209 69.4081 42.099 56.3053 42.099C43.2025 42.099 32.5806 52.7209 32.5806 65.8238C32.5806 78.9266 43.2025 89.5485 56.3053 89.5485Z" fill="#0077B3"/>
<path d="M56.3053 85.6774C67.2701 85.6774 76.1589 76.7887 76.1589 65.8238C76.1589 54.859 67.2701 45.9702 56.3053 45.9702C45.3405 45.9702 36.4517 54.859 36.4517 65.8238C36.4517 76.7887 45.3405 85.6774 56.3053 85.6774Z" fill="#C7E1EE"/>
<path d="M96.4147 44.3764C90.8497 42.5726 84.8357 45.6234 83.0245 51.2113C81.2208 56.7763 84.2715 62.7903 89.8595 64.6014C95.4474 66.4126 101.446 63.3319 103.25 57.7666C105.054 52.2013 101.98 46.1802 96.4147 44.3764ZM94.7356 49.5571C95.3585 49.759 95.9074 50.1414 96.3127 50.6557C96.718 51.17 96.9614 51.7931 97.012 52.446C97.0627 53.0988 96.9183 53.752 96.5972 54.3227C96.2761 54.8934 95.7928 55.3558 95.2085 55.6514C94.6242 55.947 93.9652 56.0624 93.3153 55.983C92.6653 55.9036 92.0536 55.6329 91.5576 55.2053C91.0617 54.7777 90.7039 54.2124 90.5297 53.5812C90.3555 52.95 90.3727 52.2813 90.5791 51.6598C91.1363 49.9405 93.016 48.9999 94.7356 49.5571ZM90.534 62.5201C88.6852 61.9239 87.1011 60.7035 86.0531 59.0678C88.0142 57.9535 90.0648 57.6431 91.9199 58.2444C93.775 58.8457 95.2835 60.2845 96.1882 62.3528C94.38 63.0627 92.3811 63.1219 90.534 62.5201Z" fill="#0C395D"/>
<path d="M50.0955 95.088C49.1289 95.5814 48.3303 96.3503 47.8007 97.2976C47.2711 98.2449 47.0343 99.3279 47.1202 100.41C47.2062 101.492 47.611 102.524 48.2835 103.375C48.956 104.227 49.866 104.86 50.8983 105.195C51.9307 105.53 53.0392 105.551 54.0834 105.255C55.1277 104.96 56.061 104.362 56.7652 103.536C57.4694 102.71 57.913 101.694 58.0398 100.616C58.1665 99.5384 57.9708 98.4472 57.4774 97.4806C56.8146 96.1855 55.6652 95.2063 54.2813 94.7577C52.8973 94.3092 51.392 94.4279 50.0955 95.088ZM51.3736 97.5917C51.6746 97.438 52.0146 97.3772 52.3502 97.417C52.6859 97.4568 53.0022 97.5954 53.259 97.8152C53.5158 98.035 53.7015 98.3261 53.7926 98.6516C53.8837 98.9771 53.8761 99.3224 53.7707 99.6435C53.6653 99.9647 53.4669 100.247 53.2006 100.456C52.9343 100.664 52.6122 100.788 52.2751 100.813C51.938 100.838 51.6011 100.762 51.3072 100.595C51.0132 100.429 50.7754 100.178 50.624 99.876C50.4232 99.4732 50.3894 99.0074 50.5297 98.5798C50.67 98.1522 50.9732 97.7971 51.3736 97.5915V97.5917ZM54.5714 103.857C53.679 104.314 52.6553 104.447 51.6758 104.232C51.9849 103.11 52.6201 102.248 53.5168 101.79C54.4136 101.333 55.4892 101.307 56.5742 101.732C56.1733 102.651 55.4652 103.402 54.5714 103.856V103.857Z" fill="#0C395D"/>
</svg>
