<svg viewBox="0 0 24 24" fill="none" xmlns="http://www.w3.org/2000/svg">
    <path d="M15.0703 1.00977H9.07031V3.00977H15.0703V1.00977ZM11.0703 14.0098H13.0703V8.00977H11.0703V14.0098ZM19.1003 7.38977L20.5203 5.96977C20.0903 5.45977 19.6203 4.97977 19.1103 4.55977L17.6903 5.97977C16.1403 4.73977 14.1903 3.99977 12.0703 3.99977C7.10031 3.99977 3.07031 8.02977 3.07031 12.9998C3.07031 17.9698 7.09031 21.9998 12.0703 21.9998C17.0503 21.9998 21.0703 17.9698 21.0703 12.9998C21.0703 10.8898 20.3303 8.93977 19.1003 7.38977ZM12.0703 20.0098C8.20031 20.0098 5.07031 16.8798 5.07031 13.0098C5.07031 9.13977 8.20031 6.00977 12.0703 6.00977C15.9403 6.00977 19.0703 9.13977 19.0703 13.0098C19.0703 16.8798 15.9403 20.0098 12.0703 20.0098Z" fill="currentColor"/>
</svg>
