<svg viewBox="0 0 30 18" fill="none" xmlns="http://www.w3.org/2000/svg">
    <path d="M6.25 12.75V9H10V6.5H6.25V2.75H3.75V6.5H0V9H3.75V12.75H6.25ZM15 11.1875C12.075 11.1875 6.25 12.65 6.25 15.5625V17.75H23.75V15.5625C23.75 12.65 17.925 11.1875 15 11.1875ZM9.175 15.25C10.225 14.525 12.7625 13.6875 15 13.6875C17.2375 13.6875 19.775 14.525 20.825 15.25H9.175ZM15 9C17.4125 9 19.375 7.0375 19.375 4.625C19.375 2.2125 17.4125 0.25 15 0.25C12.5875 0.25 10.625 2.2125 10.625 4.625C10.625 7.0375 12.5875 9 15 9ZM15 2.75C16.0375 2.75 16.875 3.5875 16.875 4.625C16.875 5.6625 16.0375 6.5 15 6.5C13.9625 6.5 13.125 5.6625 13.125 4.625C13.125 3.5875 13.9625 2.75 15 2.75ZM21.25 9C23.6625 9 25.625 7.0375 25.625 4.625C25.625 2.2125 23.6625 0.25 21.25 0.25C20.95 0.25 20.65 0.275 20.3625 0.3375C21.3125 1.5125 21.875 3 21.875 4.625C21.875 6.25 21.2875 7.725 20.3375 8.9C20.6375 8.9625 20.9375 9 21.25 9ZM24.15 11.525C25.4 12.5375 26.25 13.8625 26.25 15.5625V17.75H30V15.5625C30 13.45 26.95 12.1125 24.15 11.525Z" fill="currentColor"/>
</svg>
