<svg viewBox="0 0 18 20" fill="none" xmlns="http://www.w3.org/2000/svg">
    <path d="M16.7353 7.15391H16.2551V4.8367C16.2551 4.82225 16.2528 4.80769 16.251 4.79295C16.2503 4.70104 16.2208 4.61063 16.1578 4.53906L12.3015 0.134132C12.3004 0.133006 12.2992 0.132607 12.2984 0.131372C12.2755 0.105701 12.2487 0.0843499 12.2203 0.0658677C12.2119 0.0602395 12.2035 0.0555191 12.1947 0.0505446C12.1702 0.0372548 12.1441 0.0260348 12.1173 0.0180101C12.1101 0.0160857 12.1035 0.0131082 12.0963 0.0111837C12.0671 0.00432098 12.0369 0 12.0062 0H2.52939C2.09664 0 1.74508 0.35196 1.74508 0.784349V7.15373H1.26494C0.645881 7.15373 0.143921 7.65547 0.143921 8.27475V14.1043C0.143921 14.7229 0.645881 15.2252 1.26494 15.2252H1.74512V19.2157C1.74512 19.648 2.09668 20 2.52943 20H15.4706C15.9029 20 16.2549 19.648 16.2549 19.2157V15.2252H16.7351C17.354 15.2252 17.8561 14.7231 17.8561 14.1043V8.27493C17.8561 7.65547 17.3543 7.15391 16.7353 7.15391ZM2.52939 0.784349H11.6141V4.79705C11.6141 5.01372 11.7899 5.18921 12.0062 5.18921H15.4705V7.15391H2.52939V0.784349ZM11.3297 12.8665V14.0039H7.58781V8.01393H8.94801V12.8665H11.3297ZM1.69606 14.0037L3.42917 10.9733L1.75819 8.01393H3.31349L3.83778 9.10685C4.01566 9.47104 4.14903 9.76465 4.2913 10.1023H4.30884C4.45139 9.71995 4.56668 9.45332 4.71766 9.10685L5.22434 8.01393H6.77074L5.08197 10.9379L6.85978 14.0039H5.29547L4.75339 12.9197C4.53135 12.5019 4.38897 12.1909 4.2202 11.8444H4.20241C4.07783 12.1911 3.92707 12.5023 3.74046 12.9197L3.24261 14.0039H1.69606V14.0037ZM15.4706 19.0033H2.52939V15.2252H15.4705V19.0033H15.4706ZM13.5956 14.0931C12.9116 14.0931 12.2359 13.915 11.8985 13.7286L12.1736 12.6088C12.5382 12.7953 13.0981 12.9821 13.676 12.9821C14.2983 12.9821 14.6269 12.7244 14.6269 12.3334C14.6269 11.96 14.3426 11.7467 13.6226 11.4889C12.6273 11.1422 11.9784 10.5913 11.9784 9.71995C11.9784 8.69781 12.8316 7.91589 14.2451 7.91589C14.9203 7.91589 15.4181 8.05848 15.7736 8.21807L15.4714 9.31135C15.2315 9.19566 14.8047 9.02689 14.2183 9.02689C13.6318 9.02689 13.3475 9.29334 13.3475 9.6047C13.3475 9.98687 13.6849 10.1559 14.4583 10.4492C15.5158 10.8402 16.0137 11.391 16.0137 12.2354C16.0132 13.2399 15.2402 14.0931 13.5956 14.0931Z" fill="currentColor"/>
</svg>
