<svg viewBox="0 0 14 18" fill="none" xmlns="http://www.w3.org/2000/svg">
    <path d="M8.66732 0.666992L13.6673 5.66699V15.667C13.6673 16.109 13.4917 16.5329 13.1792 16.8455C12.8666 17.1581 12.4427 17.3337 12.0007 17.3337H2.00065C1.55862 17.3337 1.1347 17.1581 0.82214 16.8455C0.509579 16.5329 0.333984 16.109 0.333984 15.667V2.33366C0.333984 1.89163 0.509579 1.46771 0.82214 1.15515C1.1347 0.842587 1.55862 0.666992 2.00065 0.666992H8.66732ZM12.0007 15.667V6.50033H7.83398V2.33366H2.00065V15.667H12.0007ZM7.00065 14.8337L3.66732 11.5003H5.75065V9.00033H8.25065V11.5003H10.334L7.00065 14.8337Z" fill="currentColor"/>
</svg>
