<svg viewBox="0 0 24 24" fill="none" xmlns="http://www.w3.org/2000/svg">
    <g opacity="0.899789">
        <path d="M4.56182 4.56231C4.18838 4.93551 4.18838 5.54103 4.56182 5.91447L6.7259 8.07855C7.09934 8.45199 7.7051 8.45199 8.0783 8.07855C8.45174 7.70535 8.45174 7.09983 8.0783 6.72639L5.91422 4.56231C5.7275 4.37559 5.4827 4.28223 5.23814 4.28223C4.99334 4.28223 4.7483 4.37559 4.56182 4.56231Z" fill="currentColor"/>
    </g>
    <g opacity="0.99993">
        <path d="M2.43712 11.0439C1.90912 11.0439 1.48096 11.4721 1.48096 12.0003C1.48096 12.5283 1.90912 12.9567 2.43712 12.9567H5.49712C6.02536 12.9567 6.45328 12.5283 6.45328 12.0003C6.45328 11.4721 6.02536 11.0439 5.49712 11.0439H2.43712Z" fill="currentColor"/>
    </g>
    <g opacity="0.400422">
        <path d="M6.72566 15.9219L4.56206 18.0858C4.18862 18.4592 4.18862 19.0647 4.56206 19.4379C4.93526 19.8114 5.54078 19.8114 5.91422 19.4379L8.07806 17.2743C8.4515 16.9009 8.4515 16.2956 8.0783 15.9219H8.07806C7.89134 15.735 7.64654 15.6416 7.40198 15.6416C7.15718 15.6416 6.91238 15.735 6.72566 15.9219Z" fill="currentColor"/>
    </g>
    <g opacity="0.4">
        <path d="M11.0437 18.503V21.563C11.0437 22.091 11.4719 22.5192 12.0001 22.5192C12.5281 22.5192 12.9565 22.091 12.9565 21.563V18.503C12.9565 17.975 12.5281 17.5469 12.0001 17.5469C11.4719 17.5469 11.0437 17.975 11.0437 18.503Z" fill="currentColor"/>
    </g>
    <g opacity="0.4">
        <path d="M15.922 15.9217C15.5488 16.2949 15.548 16.9004 15.9215 17.2738V17.2741L18.0858 19.4379C18.4592 19.8114 19.0648 19.8114 19.438 19.4379C19.8114 19.0647 19.8114 18.4592 19.438 18.0858L17.2744 15.9219C17.0876 15.735 16.8426 15.6416 16.5978 15.6416C16.353 15.6416 16.1087 15.735 15.922 15.9217Z" fill="currentColor"/>
    </g>
    <g opacity="0.528699">
        <path d="M18.5028 11.0439C17.9748 11.0439 17.5466 11.4721 17.5466 12.0003C17.5466 12.5283 17.9748 12.9567 18.5028 12.9567H21.5626C22.0908 12.9567 22.519 12.5283 22.519 12.0003C22.519 11.4721 22.0908 11.0439 21.5626 11.0439H18.5028Z" fill="currentColor"/>
    </g>
    <g opacity="0.578587">
        <path d="M18.0854 4.56231L15.9215 6.72591C15.5478 7.09935 15.5476 7.70487 15.921 8.07831C16.2942 8.45175 16.9 8.45199 17.2734 8.07855C17.2734 8.07855 17.2732 8.07855 17.2734 8.07855L19.4375 5.91447C19.811 5.54103 19.811 4.93551 19.4375 4.56231C19.2508 4.37559 19.0062 4.28223 18.7614 4.28223C18.5169 4.28223 18.2721 4.37559 18.0854 4.56231Z" fill="currentColor"/>
    </g>
    <g opacity="0.599994">
        <path d="M11.0437 2.43785V5.49761C11.0437 6.02561 11.4719 6.45377 12.0001 6.45377C12.5281 6.45377 12.9565 6.02561 12.9565 5.49761V2.43785C12.9565 1.90937 12.5281 1.48145 12.0001 1.48145C11.4719 1.48145 11.0437 1.90937 11.0437 2.43785Z" fill="currentColor"/>
    </g>
</svg>
