<svg viewBox="0 0 26 26" fill="none" xmlns="http://www.w3.org/2000/svg">
    <path d="M13 0.5C6.1 0.5 0.5 6.1 0.5 13C0.5 19.9 6.1 25.5 13 25.5C19.9 25.5 25.5 19.9 25.5 13C25.5 6.1 19.9 0.5 13 0.5ZM13 23C7.4875 23 3 18.5125 3 13C3 7.4875 7.4875 3 13 3C18.5125 3 23 7.4875 23 13C23 18.5125 18.5125 23 13 23ZM13.3875 11.925C11.175 11.3625 10.4625 10.75 10.4625 9.8375C10.4625 8.7875 11.45 8.05 13.0875 8.05C14.8125 8.05 15.4625 8.875 15.5125 10.1H17.65C17.5875 8.425 16.5625 6.8875 14.5375 6.3875V4.25H11.625V6.3625C9.7375 6.7625 8.225 7.9875 8.225 9.875C8.225 12.1125 10.0875 13.2375 12.8 13.8875C15.2375 14.4625 15.725 15.325 15.725 16.225C15.725 16.8875 15.2375 17.9625 13.1 17.9625C11.1 17.9625 10.3125 17.0625 10.2 15.9125H8.05C8.175 18.0375 9.75 19.2375 11.625 19.625V21.75H14.55V19.6625C16.45 19.3 17.95 18.2125 17.9625 16.2C17.95 13.45 15.5875 12.5 13.3875 11.925Z" fill="currentColor"/>
</svg>
