<svg viewBox="0 0 165 165" fill="none" xmlns="http://www.w3.org/2000/svg">
    <path d="M138.191 69.3894C138.191 69.3894 117.869 81.007 131.114 117.453C142.878 149.821 100.714 154.219 84.3204 147.399C63.0849 138.565 56.0833 108.021 37.364 113.432C18.6447 118.842 10.0689 75.2879 37.6824 65.5321C72.0327 53.3963 54.5666 38.7156 60.061 25.8043C64.0045 16.5377 95.1256 7.31082 106.788 27.4481C116.602 44.3936 123.895 40.5326 130.108 39.8039C139.068 38.7526 154.468 56.859 138.191 69.3894Z" fill="currentColor"/>
    <path d="M85.8207 66.8977C85.8207 66.8977 53.736 102.937 53.3652 106.934C53.3652 106.934 54.8145 107.576 56.4309 109.449C58.302 111.618 60.5444 112.446 61.6672 111.835C63.285 110.956 63.146 109.745 63.146 109.745L87.9081 118.715C87.9081 118.715 96.6531 115.973 114.388 97.4863L119.105 90.746L85.8207 66.8977Z" fill="#0C395D"/>
    <path d="M49.054 72.1036C49.054 72.1036 53.0029 74.9364 57.7223 72.266L72.5655 63.7465C72.5655 63.7465 77.6193 60.0167 82.8166 63.6045C82.8166 63.6045 78.0945 75.0744 87.8229 77.0372C87.8229 77.0372 97.3171 81.3884 102.341 85.8552C104.867 88.1025 110.269 91.914 112.838 94.0663C113.527 94.6431 114.937 95.5055 115.653 96.3699C116.646 97.5706 118.545 100.189 115.498 102.728C115.498 102.728 113.468 105.114 109.4 102.603C105.618 100.27 99.0265 94.8577 95.031 92.3401C94.8141 92.2037 93.8241 92.0019 95.2052 93.3492C96.909 95.0101 104.866 100.892 104.866 100.892C104.866 100.892 107.842 102.958 108.549 104.007C109.17 104.928 110.126 106.948 108.346 109.142C108.346 109.142 105.819 112.474 101.485 109.827L91.5358 102.881C91.5358 102.881 89.42 101.515 91.1212 103.509C91.1212 103.509 101.219 110.603 101.616 111.683C102.748 114.76 100.557 118.718 95.6368 116.807L84.237 110.574C84.237 110.574 83.1951 110.422 84.0479 111.253C84.0479 111.253 94.625 116.712 95.3577 117.311C96.3161 118.096 93.989 121.792 89.1674 120.312C82.29 118.201 68.3894 114.4 61.6676 111.835C59.3027 110.933 54.4446 108.522 52.5722 107.389C52.5722 107.389 45.0614 102.662 34.7764 102.466L42.1863 70.8822L49.054 72.1036Z" fill="#0077B3"/>
    <path d="M60.542 113.964C60.542 113.964 62.7139 111.095 64.0565 110.057C66.7802 107.953 71.6946 109.992 71.9334 112.571C71.9334 112.571 72.9929 115.106 68.5993 118.844C67.787 119.534 65.206 121.175 61.4321 118.074C61.432 118.074 59.1804 116.003 60.542 113.964Z" fill="#0C395D"/>
    <path d="M64.8945 88.4613C64.8945 88.4613 71.1877 93.4454 77.7023 78.6184C77.7023 78.6184 81.1687 79.8262 86.5538 76.7031L87.6758 74.9583C87.6758 74.9583 76.7386 76.1223 76.7868 76.3374C76.8351 76.5525 64.8945 88.4613 64.8945 88.4613Z" fill="#0C395D"/>
    <path d="M69.9011 119.575C69.8237 117.672 72.4911 114.181 73.6585 112.949C75.0341 111.497 80.451 110.109 81.0803 115.876C81.0803 115.876 80.7445 119.917 77.7355 122.221C76.305 123.317 70.0648 123.609 69.9011 119.575Z" fill="#0C395D"/>
    <path d="M82.042 116.697C82.9637 115.231 87.5335 114.531 87.6356 118.742C87.6741 120.336 86.8435 122.965 84.4758 124.006C82.7545 124.763 78.2112 123.531 79.0749 121.685C79.668 120.416 79.9581 120.01 82.042 116.697Z" fill="#0C395D"/>
    <path d="M52.4678 110.204C52.8649 109.332 53.521 108.495 54.8312 107.439C55.6239 106.801 57.8514 106.553 59.191 107.389C60.1524 107.99 62.0478 109.398 61.623 110.651C60.8149 113.03 59.445 116.254 56.4791 115.323C56.4789 115.322 50.6975 114.095 52.4678 110.204Z" fill="#0C395D"/>
    <path d="M47.8691 68.9958L41.8157 108.348L22.3779 104.607L30.9925 64.519L47.8691 68.9958Z" fill="#0C395D"/>
    <path d="M54.6085 108.878C54.6085 108.878 53.6581 111.575 55.3455 112.708C55.3455 112.708 57.5169 115.313 60.2048 111.009C60.6527 110.292 59.6512 109.025 57.8772 108.552C57.8773 108.552 56.1966 107.905 54.6085 108.878Z" fill="#EDF8FD"/>
    <path d="M63.2101 113.727C63.2101 113.727 64.3164 111.251 65.2561 110.87C66.2238 110.478 69.1311 110.415 70.3527 113.271C70.5628 113.762 69.804 114.788 69.4624 115.331C68.8329 116.335 67.2074 117.837 65.3176 116.806C65.3175 116.805 62.9 115.933 63.2101 113.727Z" fill="#EDF8FD"/>
    <path d="M73.103 115.846C73.3655 115.127 74.3843 113.816 75.3116 113.723C76.8369 113.572 80.3592 114.703 79.4284 116.958C79.4284 116.958 78.6292 118.87 76.9144 119.316C76.9144 119.316 73.9403 120.383 72.8402 117.615C72.6747 117.199 72.9508 116.266 73.103 115.846Z" fill="#EDF8FD"/>
    <path d="M81.1783 120.171C81.6175 121.267 83.501 122.399 84.6505 121.355C85.1166 120.932 86.0766 119.518 86.1291 118.892C86.217 117.832 84.1317 115.594 82.3048 117.678C81.8736 118.17 80.935 119.564 81.1783 120.171Z" fill="#EDF8FD"/>
    <path d="M90.1209 62.5832C90.1209 62.5832 83.7606 60.5773 78.8955 65.4618L70.7408 70.4548C70.7408 70.4548 67.2628 71.608 66.1868 76.2615L62.4826 83.9635C62.4826 83.9635 59.4899 89.2483 68.2174 88.5245C68.2174 88.5245 73.2125 86.4134 77.1785 78.3923L77.1506 77.3684C77.1506 77.3684 77.7158 78.6315 80.5983 78.1244C80.5983 78.1244 83.5753 77.0939 87.6928 75.7304C87.6928 75.7304 88.361 76.5437 92.3164 78.7157C92.3164 78.7157 101.987 83.7756 104.235 86.4731L115.82 95.2906C115.82 95.2906 117.618 94.5722 122.094 87.613L132.078 84.0637L121.603 55.4846C121.603 55.4846 105.654 61.7306 100.971 62.1976L90.1209 62.5832Z" fill="#0C395D"/>
    <path d="M114.633 56.1797L128.431 88.662L143.115 82.9633L128.69 50.0852L114.633 56.1797Z" fill="#0077B3"/>
    <path d="M64.3221 80.1376C64.3221 80.1376 67.8274 78.8109 68.8609 81.2374C68.8609 81.2374 67.796 85.5637 66.5979 86.5228C65.6716 87.2653 62.5966 87.5691 61.9919 85.9861C61.9919 85.9861 61.6115 84.3552 64.3221 80.1376Z" fill="#EDF8FD"/>
    <path d="M95.9277 80.7059C95.9277 80.7059 102.448 83.3846 109.035 78.1079C109.035 78.1079 104.51 84.2055 98.4198 82.1781L95.9277 80.7059Z" fill="#0C395D"/>
    <path d="M35.2325 100.768C35.2751 101.194 35.1903 101.624 34.9888 102.002C34.7874 102.38 34.4783 102.69 34.1007 102.892C33.7232 103.095 33.294 103.181 32.8676 103.139C32.4412 103.098 32.0366 102.931 31.7051 102.659C31.3736 102.388 31.13 102.025 31.0052 101.615C30.8803 101.205 30.8798 100.767 31.0037 100.357C31.1276 99.9469 31.3703 99.5828 31.7012 99.3106C32.032 99.0384 32.4362 98.8705 32.8625 98.828C33.434 98.7712 34.0047 98.9436 34.4492 99.3074C34.8936 99.6712 35.1753 100.197 35.2325 100.768Z" fill="white"/>
    <path d="M136.005 79.8006C136.048 80.2268 135.963 80.6561 135.761 81.0341C135.56 81.412 135.251 81.7218 134.873 81.9241C134.496 82.1265 134.067 82.2123 133.641 82.1708C133.214 82.1294 132.81 81.9624 132.478 81.6911C132.147 81.4197 131.903 81.0562 131.779 80.6465C131.654 80.2368 131.653 79.7992 131.777 79.3892C131.901 78.9792 132.144 78.6151 132.474 78.3429C132.805 78.0708 133.209 77.9028 133.635 77.8603C133.918 77.8321 134.204 77.8599 134.476 77.9421C134.749 78.0243 135.002 78.1594 135.222 78.3396C135.442 78.5197 135.625 78.7415 135.759 78.9922C135.893 79.2429 135.977 79.5176 136.005 79.8006Z" fill="white"/>
    </svg>
